{"title":"Match of the Day 2 - Sept 26th 2010 - [baseSniper]","uid":5859667,"size":460875830,"categoryP":"video","categoryS":"tv_shows","magnet":"?xt=urn:btih:360c9c99abd95b68cc4c2ab78d75760db45d1ad4&amp;dn=Match+of+the+Day+2+-+Sept+26th+2010+-+%5BbaseSniper%5D+&amp;tr=udp%3A%2F%2Ftracker.openbittorrent.com%3A80&amp;tr=udp%3A%2F%2Fopen.demonii.com%3A1337&amp;tr=udp%3A%2F%2Ftracker.coppersurfer.tk%3A6969&amp;tr=udp%3A%2F%2Fexodus.desync.com%3A6969","seeders":0,"leechers":0,"uploader":null,"files":1,"time":1285918511,"description":"==================================\nMatch of the Day 2: Sept 26th 2010\n==================================\nCatch up with all the latest English Premier League football from last weekend - Aired on BBC1 (UK) on the 26th September 2010, hosted by Colin Murray.\n\nExtended highlights of Bolton vs Man Utd, Newcastle vs Stoke and Wolves vs Aston Villa.\n\nPlus all the weekend's action with all the goals from Saturday's Barclays Premier League. ;)\n==================================\n==================================\nVideo Details; (exported from MediaInfo)\nFormat                           : AVI\nFormat/Info                      : Audio Video Interleave\nFile size                        : 440 MiB\nDuration                         : 1h 10mn\nOverall bit rate                 : 878 Kbps\nWriting application              : Lavf52.13.0\n\nVideo\nID                               : 0\nFormat                           : MPEG-4 Visual\nCodec ID                         : MP42\nCodec ID/Info                    : Microsoft MPEG-4 v2 (pre-standard)\nCodec ID/Hint                    : Microsoft\nDuration                         : 1h 10mn\nBit rate                         : 768 Kbps\nWidth                            : 640 pixels\nHeight                           : 368 pixels\nDisplay aspect ratio             : 16:9\nFrame rate                       : 29.970 fps\nBits/(Pixel*Frame)               : 0.109\nStream size                      : 385 MiB (88%)\n\nAudio\nID                               : 1\nFormat                           : MPEG Audio\nFormat version                   : Version 1\nFormat profile                   : Layer 3\nMode                             : Joint stereo\nMode extension                   : MS Stereo\nCodec ID                         : 55\nCodec ID/Hint                    : MP3\nDuration                         : 1h 10mn\nBit rate mode                    : Constant\nBit rate                         : 96.0 Kbps\nChannel(s)                       : 2 channels\nSampling rate                    : 44.1 KHz\nStream size                      : 48.1 MiB (11%)\nAlignment                        : Aligned on interleaves\nInterleave, duration             : 26 ms (0.78 video frame)\n==================================\n==================================\n==================================\n====base==========================\n============Sniper================\n==================================\n==================================\n==================================\n\nComment, seed, enjoy!","torrent":{"xt":"urn:btih:360c9c99abd95b68cc4c2ab78d75760db45d1ad4","amp;dn":"Match+of+the+Day+2+-+Sept+26th+2010+-+%5BbaseSniper%5D+","amp;tr":["udp%3A%2F%2Ftracker.openbittorrent.com%3A80","udp%3A%2F%2Fopen.demonii.com%3A1337","udp%3A%2F%2Ftracker.coppersurfer.tk%3A6969","udp%3A%2F%2Fexodus.desync.com%3A6969"],"infoHash":"360c9c99abd95b68cc4c2ab78d75760db45d1ad4","infoHashBuffer":{"type":"Buffer","data":[54,12,156,153,171,217,91,104,204,76,42,183,141,117,118,13,180,93,26,212]},"announce":[],"urlList":[]}}